<mxfile host="app.diagrams.net" modified="2023-05-11T19:04:36.797Z" agent="Mozilla/5.0 (Windows NT 10.0; Win64; x64) AppleWebKit/537.36 (KHTML, like Gecko) Chrome/112.0.0.0 Safari/537.36" etag="x0vR4Aqg7R4Si2cd1Ept" version="21.1.8" type="device">
  <diagram name="第 1 页" id="GjxLgcjqskJq32Neh2Rd">
    <mxGraphModel dx="977" dy="521" grid="1" gridSize="10" guides="1" tooltips="1" connect="1" arrows="1" fold="1" page="1" pageScale="1" pageWidth="827" pageHeight="1169" math="0" shadow="0">
      <root>
        <mxCell id="0" />
        <mxCell id="1" parent="0" />
        <mxCell id="ZSV7vXpHPXyvBP9BEOMb-1" value="End" style="rounded=1;whiteSpace=wrap;html=1;fillColor=#f5f5f5;fontColor=#333333;strokeColor=#666666;" vertex="1" parent="1">
          <mxGeometry x="570" y="235" width="60" height="30" as="geometry" />
        </mxCell>
        <mxCell id="ZSV7vXpHPXyvBP9BEOMb-13" style="edgeStyle=orthogonalEdgeStyle;rounded=0;orthogonalLoop=1;jettySize=auto;html=1;entryX=0;entryY=0.5;entryDx=0;entryDy=0;" edge="1" parent="1" source="ZSV7vXpHPXyvBP9BEOMb-2" target="ZSV7vXpHPXyvBP9BEOMb-10">
          <mxGeometry relative="1" as="geometry" />
        </mxCell>
        <mxCell id="ZSV7vXpHPXyvBP9BEOMb-2" value="Start" style="rounded=1;whiteSpace=wrap;html=1;fillColor=#f5f5f5;fontColor=#333333;strokeColor=#666666;" vertex="1" parent="1">
          <mxGeometry y="50" width="60" height="30" as="geometry" />
        </mxCell>
        <mxCell id="ZSV7vXpHPXyvBP9BEOMb-17" style="edgeStyle=orthogonalEdgeStyle;rounded=0;orthogonalLoop=1;jettySize=auto;html=1;entryX=1;entryY=0.5;entryDx=0;entryDy=0;" edge="1" parent="1" target="ZSV7vXpHPXyvBP9BEOMb-4">
          <mxGeometry relative="1" as="geometry">
            <mxPoint x="540" y="140" as="sourcePoint" />
            <Array as="points">
              <mxPoint x="460" y="140" />
              <mxPoint x="460" y="145" />
            </Array>
          </mxGeometry>
        </mxCell>
        <mxCell id="ZSV7vXpHPXyvBP9BEOMb-3" value="MoveCount = 0&lt;br&gt;uphill = 0&lt;br&gt;reject = 0" style="rounded=0;whiteSpace=wrap;html=1;fillColor=#dae8fc;strokeColor=#6c8ebf;" vertex="1" parent="1">
          <mxGeometry x="460" y="120" width="90" height="50" as="geometry" />
        </mxCell>
        <mxCell id="ZSV7vXpHPXyvBP9BEOMb-18" style="edgeStyle=orthogonalEdgeStyle;rounded=0;orthogonalLoop=1;jettySize=auto;html=1;entryX=1;entryY=0.5;entryDx=0;entryDy=0;" edge="1" parent="1" source="ZSV7vXpHPXyvBP9BEOMb-4" target="ZSV7vXpHPXyvBP9BEOMb-9">
          <mxGeometry relative="1" as="geometry" />
        </mxCell>
        <mxCell id="ZSV7vXpHPXyvBP9BEOMb-4" value="Update cooling factor" style="rounded=0;whiteSpace=wrap;html=1;fillColor=#dae8fc;strokeColor=#6c8ebf;" vertex="1" parent="1">
          <mxGeometry x="270" y="120" width="90" height="50" as="geometry" />
        </mxCell>
        <mxCell id="ZSV7vXpHPXyvBP9BEOMb-20" style="edgeStyle=orthogonalEdgeStyle;rounded=0;orthogonalLoop=1;jettySize=auto;html=1;exitX=1;exitY=0.5;exitDx=0;exitDy=0;entryX=0;entryY=0.5;entryDx=0;entryDy=0;" edge="1" parent="1" source="ZSV7vXpHPXyvBP9BEOMb-5" target="ZSV7vXpHPXyvBP9BEOMb-11">
          <mxGeometry relative="1" as="geometry" />
        </mxCell>
        <mxCell id="ZSV7vXpHPXyvBP9BEOMb-25" style="edgeStyle=orthogonalEdgeStyle;rounded=0;orthogonalLoop=1;jettySize=auto;html=1;exitX=0.5;exitY=0;exitDx=0;exitDy=0;entryX=0.5;entryY=1;entryDx=0;entryDy=0;" edge="1" parent="1" source="ZSV7vXpHPXyvBP9BEOMb-5" target="ZSV7vXpHPXyvBP9BEOMb-3">
          <mxGeometry relative="1" as="geometry">
            <mxPoint x="505" y="190" as="targetPoint" />
            <Array as="points">
              <mxPoint x="120" y="190" />
              <mxPoint x="505" y="190" />
            </Array>
          </mxGeometry>
        </mxCell>
        <mxCell id="ZSV7vXpHPXyvBP9BEOMb-5" value="Uphill &amp;lt; N&lt;br&gt;MoveCount &amp;lt; 2N&lt;br&gt;Time &amp;lt; 7080s" style="rhombus;whiteSpace=wrap;html=1;" vertex="1" parent="1">
          <mxGeometry x="50" y="205" width="140" height="90" as="geometry" />
        </mxCell>
        <mxCell id="ZSV7vXpHPXyvBP9BEOMb-15" style="edgeStyle=orthogonalEdgeStyle;rounded=0;orthogonalLoop=1;jettySize=auto;html=1;entryX=0;entryY=0.5;entryDx=0;entryDy=0;" edge="1" parent="1" source="ZSV7vXpHPXyvBP9BEOMb-7">
          <mxGeometry relative="1" as="geometry">
            <mxPoint x="540" y="64.99999999999989" as="targetPoint" />
          </mxGeometry>
        </mxCell>
        <mxCell id="ZSV7vXpHPXyvBP9BEOMb-7" value="Set T0 by thsis approach" style="rounded=0;whiteSpace=wrap;html=1;fillColor=#dae8fc;strokeColor=#6c8ebf;" vertex="1" parent="1">
          <mxGeometry x="270" y="40" width="90" height="50" as="geometry" />
        </mxCell>
        <mxCell id="ZSV7vXpHPXyvBP9BEOMb-28" style="edgeStyle=orthogonalEdgeStyle;rounded=0;orthogonalLoop=1;jettySize=auto;html=1;entryX=1;entryY=0.5;entryDx=0;entryDy=0;" edge="1" parent="1" source="ZSV7vXpHPXyvBP9BEOMb-8" target="ZSV7vXpHPXyvBP9BEOMb-3">
          <mxGeometry relative="1" as="geometry">
            <mxPoint x="560" y="130" as="targetPoint" />
            <Array as="points">
              <mxPoint x="570" y="65" />
              <mxPoint x="570" y="145" />
            </Array>
          </mxGeometry>
        </mxCell>
        <mxCell id="ZSV7vXpHPXyvBP9BEOMb-8" value="Construct tree by polish expression" style="rounded=0;whiteSpace=wrap;html=1;fillColor=#dae8fc;strokeColor=#6c8ebf;" vertex="1" parent="1">
          <mxGeometry x="460" y="40" width="90" height="50" as="geometry" />
        </mxCell>
        <mxCell id="ZSV7vXpHPXyvBP9BEOMb-19" style="edgeStyle=orthogonalEdgeStyle;rounded=0;orthogonalLoop=1;jettySize=auto;html=1;entryX=0;entryY=0.5;entryDx=0;entryDy=0;" edge="1" parent="1" source="ZSV7vXpHPXyvBP9BEOMb-9" target="ZSV7vXpHPXyvBP9BEOMb-5">
          <mxGeometry relative="1" as="geometry">
            <Array as="points">
              <mxPoint x="30" y="140" />
              <mxPoint x="30" y="250" />
            </Array>
          </mxGeometry>
        </mxCell>
        <mxCell id="ZSV7vXpHPXyvBP9BEOMb-9" value="Inner Loop" style="rounded=0;whiteSpace=wrap;html=1;fillColor=#f8cecc;strokeColor=#b85450;" vertex="1" parent="1">
          <mxGeometry x="80" y="120" width="90" height="50" as="geometry" />
        </mxCell>
        <mxCell id="ZSV7vXpHPXyvBP9BEOMb-14" style="edgeStyle=orthogonalEdgeStyle;rounded=0;orthogonalLoop=1;jettySize=auto;html=1;entryX=0;entryY=0.5;entryDx=0;entryDy=0;" edge="1" parent="1" source="ZSV7vXpHPXyvBP9BEOMb-10" target="ZSV7vXpHPXyvBP9BEOMb-7">
          <mxGeometry relative="1" as="geometry" />
        </mxCell>
        <mxCell id="ZSV7vXpHPXyvBP9BEOMb-10" value="N = k * n" style="rounded=0;whiteSpace=wrap;html=1;fillColor=#dae8fc;strokeColor=#6c8ebf;" vertex="1" parent="1">
          <mxGeometry x="80" y="40" width="90" height="50" as="geometry" />
        </mxCell>
        <mxCell id="ZSV7vXpHPXyvBP9BEOMb-21" style="edgeStyle=orthogonalEdgeStyle;rounded=0;orthogonalLoop=1;jettySize=auto;html=1;entryX=0;entryY=0.5;entryDx=0;entryDy=0;" edge="1" parent="1" source="ZSV7vXpHPXyvBP9BEOMb-11" target="ZSV7vXpHPXyvBP9BEOMb-12">
          <mxGeometry relative="1" as="geometry" />
        </mxCell>
        <mxCell id="ZSV7vXpHPXyvBP9BEOMb-11" value="Delete tree" style="rounded=0;whiteSpace=wrap;html=1;" vertex="1" parent="1">
          <mxGeometry x="270" y="225" width="90" height="50" as="geometry" />
        </mxCell>
        <mxCell id="ZSV7vXpHPXyvBP9BEOMb-22" style="edgeStyle=orthogonalEdgeStyle;rounded=0;orthogonalLoop=1;jettySize=auto;html=1;entryX=0;entryY=0.5;entryDx=0;entryDy=0;" edge="1" parent="1" target="ZSV7vXpHPXyvBP9BEOMb-1">
          <mxGeometry relative="1" as="geometry">
            <mxPoint x="530" y="250.0000000000001" as="sourcePoint" />
          </mxGeometry>
        </mxCell>
        <mxCell id="ZSV7vXpHPXyvBP9BEOMb-12" value="Return best polish expression" style="rounded=0;whiteSpace=wrap;html=1;fillColor=#dae8fc;strokeColor=#6c8ebf;" vertex="1" parent="1">
          <mxGeometry x="460" y="225" width="90" height="50" as="geometry" />
        </mxCell>
        <mxCell id="ZSV7vXpHPXyvBP9BEOMb-26" value="Uphill &amp;lt; N&lt;br&gt;MoveCount &amp;lt; 2N&lt;br&gt;Time &amp;lt; 7080s" style="rhombus;whiteSpace=wrap;html=1;fillColor=#dae8fc;strokeColor=#6c8ebf;" vertex="1" parent="1">
          <mxGeometry x="50" y="205" width="140" height="90" as="geometry" />
        </mxCell>
        <mxCell id="ZSV7vXpHPXyvBP9BEOMb-27" value="Delete tree" style="rounded=0;whiteSpace=wrap;html=1;fillColor=#dae8fc;strokeColor=#6c8ebf;" vertex="1" parent="1">
          <mxGeometry x="270" y="225" width="90" height="50" as="geometry" />
        </mxCell>
      </root>
    </mxGraphModel>
  </diagram>
</mxfile>
